<svg width="282" height="228" viewBox="0 0 282 228" fill="none" xmlns="http://www.w3.org/2000/svg">
<g clip-path="url(#clip0_293_9338)">
<mask id="mask0_293_9338" style="mask-type:luminance" maskUnits="userSpaceOnUse" x="-27" y="-56" width="337" height="337">
<path d="M309.5 -55.5898H-26.5V280.41H309.5V-55.5898Z" fill="white"/>
</mask>
<g mask="url(#mask0_293_9338)">
<mask id="mask1_293_9338" style="mask-type:alpha" maskUnits="userSpaceOnUse" x="-43" y="-72" width="369" height="369">
<path d="M141.5 296.41C243.12 296.41 325.5 214.031 325.5 112.41C325.5 10.7898 243.12 -71.5898 141.5 -71.5898C39.8796 -71.5898 -42.5 10.7898 -42.5 112.41C-42.5 214.031 39.8796 296.41 141.5 296.41Z" fill="url(#paint0_radial_293_9338)"/>
</mask>
<g mask="url(#mask1_293_9338)">
<g opacity="0.1">
<path opacity="0.4" d="M11.3466 3.60336C12.0903 3.60336 12.6932 3.00046 12.6932 2.25676C12.6932 1.51305 12.0903 0.910156 11.3466 0.910156C10.6029 0.910156 10 1.51305 10 2.25676C10 3.00046 10.6029 3.60336 11.3466 3.60336Z" fill="#F8F8F8"/>
<path opacity="0.4" d="M31.208 3.32616C31.8752 3.32616 32.416 2.78532 32.416 2.11816C32.416 1.451 31.8752 0.910156 31.208 0.910156C30.5408 0.910156 30 1.451 30 2.11816C30 2.78532 30.5408 3.32616 31.208 3.32616Z" fill="#F8F8F8"/>
<path opacity="0.4" d="M51.0298 2.96976C51.5985 2.96976 52.0596 2.5087 52.0596 1.93996C52.0596 1.37121 51.5985 0.910156 51.0298 0.910156C50.4611 0.910156 50 1.37121 50 1.93996C50 2.5087 50.4611 2.96976 51.0298 2.96976Z" fill="#F8F8F8"/>
<path d="M71.3912 3.19256C71.8834 3.19256 72.2824 2.79355 72.2824 2.30136C72.2824 1.80916 71.8834 1.41016 71.3912 1.41016C70.899 1.41016 70.5 1.80916 70.5 2.30136C70.5 2.79355 70.899 3.19256 71.3912 3.19256Z" fill="#F8F8F8"/>
<path d="M91.2328 2.87576C91.6375 2.87576 91.9656 2.54767 91.9656 2.14296C91.9656 1.73824 91.6375 1.41016 91.2328 1.41016C90.8281 1.41016 90.5 1.73824 90.5 2.14296C90.5 2.54767 90.8281 2.87576 91.2328 2.87576Z" fill="#F8F8F8"/>
<path d="M111.055 2.51936C111.361 2.51936 111.609 2.27105 111.609 1.96476C111.609 1.65846 111.361 1.41016 111.055 1.41016C110.748 1.41016 110.5 1.65846 110.5 1.96476C110.5 2.27105 110.748 2.51936 111.055 2.51936Z" fill="#F8F8F8"/>
<path d="M131 2.41016C131.276 2.41016 131.5 2.1863 131.5 1.91016C131.5 1.63401 131.276 1.41016 131 1.41016C130.724 1.41016 130.5 1.63401 130.5 1.91016C130.5 2.1863 130.724 2.41016 131 2.41016Z" fill="#F8F8F8"/>
<path d="M151 2.41016C151.276 2.41016 151.5 2.1863 151.5 1.91016C151.5 1.63401 151.276 1.41016 151 1.41016C150.724 1.41016 150.5 1.63401 150.5 1.91016C150.5 2.1863 150.724 2.41016 151 2.41016Z" fill="#F8F8F8"/>
<path d="M171 2.41016C171.276 2.41016 171.5 2.1863 171.5 1.91016C171.5 1.63401 171.276 1.41016 171 1.41016C170.724 1.41016 170.5 1.63401 170.5 1.91016C170.5 2.1863 170.724 2.41016 171 2.41016Z" fill="#F8F8F8"/>
<path d="M191 2.41016C191.276 2.41016 191.5 2.1863 191.5 1.91016C191.5 1.63401 191.276 1.41016 191 1.41016C190.724 1.41016 190.5 1.63401 190.5 1.91016C190.5 2.1863 190.724 2.41016 191 2.41016Z" fill="#F8F8F8"/>
<path d="M211 2.41016C211.276 2.41016 211.5 2.1863 211.5 1.91016C211.5 1.63401 211.276 1.41016 211 1.41016C210.724 1.41016 210.5 1.63401 210.5 1.91016C210.5 2.1863 210.724 2.41016 211 2.41016Z" fill="#F8F8F8"/>
<path d="M231 2.41016C231.276 2.41016 231.5 2.1863 231.5 1.91016C231.5 1.63401 231.276 1.41016 231 1.41016C230.724 1.41016 230.5 1.63401 230.5 1.91016C230.5 2.1863 230.724 2.41016 231 2.41016Z" fill="#F8F8F8"/>
<path d="M251 2.41016C251.276 2.41016 251.5 2.1863 251.5 1.91016C251.5 1.63401 251.276 1.41016 251 1.41016C250.724 1.41016 250.5 1.63401 250.5 1.91016C250.5 2.1863 250.724 2.41016 251 2.41016Z" fill="#F8F8F8"/>
<path d="M271 2.41016C271.276 2.41016 271.5 2.1863 271.5 1.91016C271.5 1.63401 271.276 1.41016 271 1.41016C270.724 1.41016 270.5 1.63401 270.5 1.91016C270.5 2.1863 270.724 2.41016 271 2.41016Z" fill="#F8F8F8"/>
<path opacity="0.4" d="M11.2476 23.4054C11.9366 23.4054 12.4952 22.8468 12.4952 22.1578C12.4952 21.4687 11.9366 20.9102 11.2476 20.9102C10.5586 20.9102 10 21.4687 10 22.1578C10 22.8468 10.5586 23.4054 11.2476 23.4054Z" fill="#F8F8F8"/>
<path opacity="0.4" d="M31.109 23.1282C31.7215 23.1282 32.218 22.6316 32.218 22.0192C32.218 21.4067 31.7215 20.9102 31.109 20.9102C30.4965 20.9102 30 21.4067 30 22.0192C30 22.6316 30.4965 23.1282 31.109 23.1282Z" fill="#F8F8F8"/>
<path opacity="0.4" d="M51.4704 23.351C52.0063 23.351 52.4408 22.9165 52.4408 22.3806C52.4408 21.8446 52.0063 21.4102 51.4704 21.4102C50.9345 21.4102 50.5 21.8446 50.5 22.3806C50.5 22.9165 50.9345 23.351 51.4704 23.351Z" fill="#F8F8F8"/>
<path d="M71.3318 23.0738C71.7912 23.0738 72.1636 22.7013 72.1636 22.242C72.1636 21.7826 71.7912 21.4102 71.3318 21.4102C70.8724 21.4102 70.5 21.7826 70.5 22.242C70.5 22.7013 70.8724 23.0738 71.3318 23.0738Z" fill="#F8F8F8"/>
<path d="M91.1734 22.757C91.5453 22.757 91.8468 22.4555 91.8468 22.0836C91.8468 21.7116 91.5453 21.4102 91.1734 21.4102C90.8015 21.4102 90.5 21.7116 90.5 22.0836C90.5 22.4555 90.8015 22.757 91.1734 22.757Z" fill="#F8F8F8"/>
<path d="M111.055 22.5194C111.361 22.5194 111.609 22.2711 111.609 21.9648C111.609 21.6585 111.361 21.4102 111.055 21.4102C110.748 21.4102 110.5 21.6585 110.5 21.9648C110.5 22.2711 110.748 22.5194 111.055 22.5194Z" fill="#F8F8F8"/>
<path d="M131 22.4102C131.276 22.4102 131.5 22.1863 131.5 21.9102C131.5 21.634 131.276 21.4102 131 21.4102C130.724 21.4102 130.5 21.634 130.5 21.9102C130.5 22.1863 130.724 22.4102 131 22.4102Z" fill="#F8F8F8"/>
<path d="M151 22.4102C151.276 22.4102 151.5 22.1863 151.5 21.9102C151.5 21.634 151.276 21.4102 151 21.4102C150.724 21.4102 150.5 21.634 150.5 21.9102C150.5 22.1863 150.724 22.4102 151 22.4102Z" fill="#F8F8F8"/>
<path d="M171 22.4102C171.276 22.4102 171.5 22.1863 171.5 21.9102C171.5 21.634 171.276 21.4102 171 21.4102C170.724 21.4102 170.5 21.634 170.5 21.9102C170.5 22.1863 170.724 22.4102 171 22.4102Z" fill="#F8F8F8"/>
<path d="M191 22.4102C191.276 22.4102 191.5 22.1863 191.5 21.9102C191.5 21.634 191.276 21.4102 191 21.4102C190.724 21.4102 190.5 21.634 190.5 21.9102C190.5 22.1863 190.724 22.4102 191 22.4102Z" fill="#F8F8F8"/>
<path d="M211 22.4102C211.276 22.4102 211.5 22.1863 211.5 21.9102C211.5 21.634 211.276 21.4102 211 21.4102C210.724 21.4102 210.5 21.634 210.5 21.9102C210.5 22.1863 210.724 22.4102 211 22.4102Z" fill="#F8F8F8"/>
<path d="M231 22.4102C231.276 22.4102 231.5 22.1863 231.5 21.9102C231.5 21.634 231.276 21.4102 231 21.4102C230.724 21.4102 230.5 21.634 230.5 21.9102C230.5 22.1863 230.724 22.4102 231 22.4102Z" fill="#F8F8F8"/>
<path d="M251 22.4102C251.276 22.4102 251.5 22.1863 251.5 21.9102C251.5 21.634 251.276 21.4102 251 21.4102C250.724 21.4102 250.5 21.634 250.5 21.9102C250.5 22.1863 250.724 22.4102 251 22.4102Z" fill="#F8F8F8"/>
<path d="M271 22.4102C271.276 22.4102 271.5 22.1863 271.5 21.9102C271.5 21.634 271.276 21.4102 271 21.4102C270.724 21.4102 270.5 21.634 270.5 21.9102C270.5 22.1863 270.724 22.4102 271 22.4102Z" fill="#F8F8F8"/>
<path d="M11.1684 43.247C11.8137 43.247 12.3368 42.7238 12.3368 42.0786C12.3368 41.4333 11.8137 40.9102 11.1684 40.9102C10.5231 40.9102 10 41.4333 10 42.0786C10 42.7238 10.5231 43.247 11.1684 43.247Z" fill="#F8F8F8"/>
<path d="M31.0496 43.0094C31.6293 43.0094 32.0992 42.5394 32.0992 41.9598C32.0992 41.3801 31.6293 40.9102 31.0496 40.9102C30.4699 40.9102 30 41.3801 30 41.9598C30 42.5394 30.4699 43.0094 31.0496 43.0094Z" fill="#F8F8F8"/>
<path d="M51.411 43.2322C51.9141 43.2322 52.322 42.8243 52.322 42.3212C52.322 41.818 51.9141 41.4102 51.411 41.4102C50.9079 41.4102 50.5 41.818 50.5 42.3212C50.5 42.8243 50.9079 43.2322 51.411 43.2322Z" fill="#F8F8F8"/>
<path d="M71.312 43.0342C71.7605 43.0342 72.124 42.6706 72.124 42.2222C72.124 41.7737 71.7605 41.4102 71.312 41.4102C70.8635 41.4102 70.5 41.7737 70.5 42.2222C70.5 42.6706 70.8635 43.0342 71.312 43.0342Z" fill="#F8F8F8"/>
<path d="M91.1734 42.757C91.5453 42.757 91.8468 42.4555 91.8468 42.0836C91.8468 41.7116 91.5453 41.4102 91.1734 41.4102C90.8015 41.4102 90.5 41.7116 90.5 42.0836C90.5 42.4555 90.8015 42.757 91.1734 42.757Z" fill="#F8F8F8"/>
<path d="M111.074 42.559C111.392 42.559 111.649 42.3018 111.649 41.9846C111.649 41.6673 111.392 41.4102 111.074 41.4102C110.757 41.4102 110.5 41.6673 110.5 41.9846C110.5 42.3018 110.757 42.559 111.074 42.559Z" fill="#F8F8F8"/>
<path d="M131.015 42.4402C131.299 42.4402 131.53 42.2096 131.53 41.9252C131.53 41.6407 131.299 41.4102 131.015 41.4102C130.731 41.4102 130.5 41.6407 130.5 41.9252C130.5 42.2096 130.731 42.4402 131.015 42.4402Z" fill="#F8F8F8"/>
<path d="M151 42.4102C151.276 42.4102 151.5 42.1863 151.5 41.9102C151.5 41.634 151.276 41.4102 151 41.4102C150.724 41.4102 150.5 41.634 150.5 41.9102C150.5 42.1863 150.724 42.4102 151 42.4102Z" fill="#F8F8F8"/>
<path d="M171 42.4102C171.276 42.4102 171.5 42.1863 171.5 41.9102C171.5 41.634 171.276 41.4102 171 41.4102C170.724 41.4102 170.5 41.634 170.5 41.9102C170.5 42.1863 170.724 42.4102 171 42.4102Z" fill="#F8F8F8"/>
<path d="M191 42.4102C191.276 42.4102 191.5 42.1863 191.5 41.9102C191.5 41.634 191.276 41.4102 191 41.4102C190.724 41.4102 190.5 41.634 190.5 41.9102C190.5 42.1863 190.724 42.4102 191 42.4102Z" fill="#F8F8F8"/>
<path d="M211 42.4102C211.276 42.4102 211.5 42.1863 211.5 41.9102C211.5 41.634 211.276 41.4102 211 41.4102C210.724 41.4102 210.5 41.634 210.5 41.9102C210.5 42.1863 210.724 42.4102 211 42.4102Z" fill="#F8F8F8"/>
<path d="M231 42.4102C231.276 42.4102 231.5 42.1863 231.5 41.9102C231.5 41.634 231.276 41.4102 231 41.4102C230.724 41.4102 230.5 41.634 230.5 41.9102C230.5 42.1863 230.724 42.4102 231 42.4102Z" fill="#F8F8F8"/>
<path d="M251 42.4102C251.276 42.4102 251.5 42.1863 251.5 41.9102C251.5 41.634 251.276 41.4102 251 41.4102C250.724 41.4102 250.5 41.634 250.5 41.9102C250.5 42.1863 250.724 42.4102 251 42.4102Z" fill="#F8F8F8"/>
<path d="M271 42.4102C271.276 42.4102 271.5 42.1863 271.5 41.9102C271.5 41.634 271.276 41.4102 271 41.4102C270.724 41.4102 270.5 41.634 270.5 41.9102C270.5 42.1863 270.724 42.4102 271 42.4102Z" fill="#F8F8F8"/>
<path d="M11.0892 63.0886C11.6907 63.0886 12.1784 62.6009 12.1784 61.9994C12.1784 61.3978 11.6907 60.9102 11.0892 60.9102C10.4877 60.9102 10 61.3978 10 61.9994C10 62.6009 10.4877 63.0886 11.0892 63.0886Z" fill="#F8F8F8"/>
<path d="M31.4902 63.3906C32.0371 63.3906 32.4804 62.9472 32.4804 62.4004C32.4804 61.8535 32.0371 61.4102 31.4902 61.4102C30.9433 61.4102 30.5 61.8535 30.5 62.4004C30.5 62.9472 30.9433 63.3906 31.4902 63.3906Z" fill="#F8F8F8"/>
<path d="M251 62.4102C251.276 62.4102 251.5 62.1863 251.5 61.9102C251.5 61.634 251.276 61.4102 251 61.4102C250.724 61.4102 250.5 61.634 250.5 61.9102C250.5 62.1863 250.724 62.4102 251 62.4102Z" fill="#F8F8F8"/>
<path d="M271 62.4102C271.276 62.4102 271.5 62.1863 271.5 61.9102C271.5 61.634 271.276 61.4102 271 61.4102C270.724 61.4102 270.5 61.634 270.5 61.9102C270.5 62.1863 270.724 62.4102 271 62.4102Z" fill="#F8F8F8"/>
<path d="M11.0298 82.9698C11.5985 82.9698 12.0596 82.5087 12.0596 81.94C12.0596 81.3712 11.5985 80.9102 11.0298 80.9102C10.4611 80.9102 10 81.3712 10 81.94C10 82.5087 10.4611 82.9698 11.0298 82.9698Z" fill="#F8F8F8"/>
<path d="M31.4506 83.3114C31.9756 83.3114 32.4012 82.8858 32.4012 82.3608C32.4012 81.8358 31.9756 81.4102 31.4506 81.4102C30.9256 81.4102 30.5 81.8358 30.5 82.3608C30.5 82.8858 30.9256 83.3114 31.4506 83.3114Z" fill="#F8F8F8"/>
<path d="M251.055 82.5194C251.361 82.5194 251.609 82.271 251.609 81.9648C251.609 81.6585 251.361 81.4102 251.055 81.4102C250.748 81.4102 250.5 81.6585 250.5 81.9648C250.5 82.271 250.748 82.5194 251.055 82.5194Z" fill="#F8F8F8"/>
<path d="M271 82.4102C271.276 82.4102 271.5 82.1863 271.5 81.9102C271.5 81.634 271.276 81.4102 271 81.4102C270.724 81.4102 270.5 81.634 270.5 81.9102C270.5 82.1863 270.724 82.4102 271 82.4102Z" fill="#F8F8F8"/>
<path d="M11.4902 103.39C12.0371 103.39 12.4804 102.947 12.4804 102.4C12.4804 101.853 12.0371 101.41 11.4902 101.41C10.9433 101.41 10.5 101.853 10.5 102.4C10.5 102.947 10.9433 103.39 11.4902 103.39Z" fill="#F8F8F8"/>
<path d="M31.4506 103.311C31.9756 103.311 32.4012 102.886 32.4012 102.361C32.4012 101.836 31.9756 101.41 31.4506 101.41C30.9256 101.41 30.5 101.836 30.5 102.361C30.5 102.886 30.9256 103.311 31.4506 103.311Z" fill="#F8F8F8"/>
<path d="M251.213 102.836C251.607 102.836 251.926 102.517 251.926 102.123C251.926 101.729 251.607 101.41 251.213 101.41C250.819 101.41 250.5 101.729 250.5 102.123C250.5 102.517 250.819 102.836 251.213 102.836Z" fill="#F8F8F8"/>
<path d="M271.134 102.678C271.484 102.678 271.768 102.394 271.768 102.044C271.768 101.694 271.484 101.41 271.134 101.41C270.784 101.41 270.5 101.694 270.5 102.044C270.5 102.394 270.784 102.678 271.134 102.678Z" fill="#F8F8F8"/>
<path d="M11.4506 123.311C11.9756 123.311 12.4012 122.886 12.4012 122.361C12.4012 121.836 11.9756 121.41 11.4506 121.41C10.9256 121.41 10.5 121.836 10.5 122.361C10.5 122.886 10.9256 123.311 11.4506 123.311Z" fill="#F8F8F8"/>
<path d="M31.4506 123.311C31.9756 123.311 32.4012 122.886 32.4012 122.361C32.4012 121.836 31.9756 121.41 31.4506 121.41C30.9256 121.41 30.5 121.836 30.5 122.361C30.5 122.886 30.9256 123.311 31.4506 123.311Z" fill="#F8F8F8"/>
<path d="M251.371 123.153C251.853 123.153 252.243 122.763 252.243 122.282C252.243 121.801 251.853 121.411 251.371 121.411C250.89 121.411 250.5 121.801 250.5 122.282C250.5 122.763 250.89 123.153 251.371 123.153Z" fill="#F8F8F8"/>
<path d="M271.292 122.994C271.73 122.994 272.084 122.639 272.084 122.202C272.084 121.764 271.73 121.41 271.292 121.41C270.855 121.41 270.5 121.764 270.5 122.202C270.5 122.639 270.855 122.994 271.292 122.994Z" fill="#F8F8F8"/>
<path d="M11.4506 143.311C11.9756 143.311 12.4012 142.886 12.4012 142.361C12.4012 141.836 11.9756 141.41 11.4506 141.41C10.9256 141.41 10.5 141.836 10.5 142.361C10.5 142.886 10.9256 143.311 11.4506 143.311Z" fill="#F8F8F8"/>
<path d="M31.4704 143.351C32.0063 143.351 32.4408 142.917 32.4408 142.381C32.4408 141.845 32.0063 141.411 31.4704 141.411C30.9345 141.411 30.5 141.845 30.5 142.381C30.5 142.917 30.9345 143.351 31.4704 143.351Z" fill="#F8F8F8"/>
<path d="M251.01 142.93C251.568 142.93 252.02 142.478 252.02 141.92C252.02 141.362 251.568 140.91 251.01 140.91C250.452 140.91 250 141.362 250 141.92C250 142.478 250.452 142.93 251.01 142.93Z" fill="#F8F8F8"/>
<path d="M271.411 143.232C271.914 143.232 272.322 142.824 272.322 142.321C272.322 141.818 271.914 141.41 271.411 141.41C270.908 141.41 270.5 141.818 270.5 142.321C270.5 142.824 270.908 143.232 271.411 143.232Z" fill="#F8F8F8"/>
<path d="M11.4506 163.311C11.9756 163.311 12.4012 162.886 12.4012 162.361C12.4012 161.836 11.9756 161.41 11.4506 161.41C10.9256 161.41 10.5 161.836 10.5 162.361C10.5 162.886 10.9256 163.311 11.4506 163.311Z" fill="#F8F8F8"/>
<path d="M31.4902 163.39C32.0371 163.39 32.4804 162.947 32.4804 162.4C32.4804 161.853 32.0371 161.41 31.4902 161.41C30.9433 161.41 30.5 161.853 30.5 162.4C30.5 162.947 30.9433 163.39 31.4902 163.39Z" fill="#F8F8F8"/>
<path d="M251.089 163.088C251.691 163.088 252.178 162.6 252.178 161.999C252.178 161.397 251.691 160.91 251.089 160.91C250.488 160.91 250 161.397 250 161.999C250 162.6 250.488 163.088 251.089 163.088Z" fill="#F8F8F8"/>
<path d="M271.01 162.93C271.568 162.93 272.02 162.478 272.02 161.92C272.02 161.362 271.568 160.91 271.01 160.91C270.452 160.91 270 161.362 270 161.92C270 162.478 270.452 162.93 271.01 162.93Z" fill="#F8F8F8"/>
<path opacity="0.5" d="M11.4506 183.311C11.9756 183.311 12.4012 182.886 12.4012 182.361C12.4012 181.836 11.9756 181.41 11.4506 181.41C10.9256 181.41 10.5 181.836 10.5 182.361C10.5 182.886 10.9256 183.311 11.4506 183.311Z" fill="#F8F8F8"/>
<path opacity="0.5" d="M31.0298 182.97C31.5985 182.97 32.0596 182.509 32.0596 181.94C32.0596 181.371 31.5985 180.91 31.0298 180.91C30.4611 180.91 30 181.371 30 181.94C30 182.509 30.4611 182.97 31.0298 182.97Z" fill="#F8F8F8"/>
<path d="M51.109 183.128C51.7215 183.128 52.218 182.632 52.218 182.019C52.218 181.407 51.7215 180.91 51.109 180.91C50.4965 180.91 50 181.407 50 182.019C50 182.632 50.4965 183.128 51.109 183.128Z" fill="#F8F8F8"/>
<path d="M71.1684 183.247C71.8137 183.247 72.3368 182.724 72.3368 182.079C72.3368 181.434 71.8137 180.911 71.1684 180.911C70.5231 180.911 70 181.434 70 182.079C70 182.724 70.5231 183.247 71.1684 183.247Z" fill="#F8F8F8"/>
<path d="M91.2278 183.366C91.9059 183.366 92.4556 182.816 92.4556 182.138C92.4556 181.46 91.9059 180.91 91.2278 180.91C90.5497 180.91 90 181.46 90 182.138C90 182.816 90.5497 183.366 91.2278 183.366Z" fill="#F8F8F8"/>
<path d="M191.307 183.524C192.029 183.524 192.614 182.939 192.614 182.217C192.614 181.495 192.029 180.91 191.307 180.91C190.585 180.91 190 181.495 190 182.217C190 182.939 190.585 183.524 191.307 183.524Z" fill="#F8F8F8"/>
<path d="M211.287 183.484C211.998 183.484 212.574 182.908 212.574 182.197C212.574 181.486 211.998 180.91 211.287 180.91C210.576 180.91 210 181.486 210 182.197C210 182.908 210.576 183.484 211.287 183.484Z" fill="#F8F8F8"/>
<path d="M231.248 183.405C231.937 183.405 232.495 182.847 232.495 182.158C232.495 181.469 231.937 180.91 231.248 180.91C230.559 180.91 230 181.469 230 182.158C230 182.847 230.559 183.405 231.248 183.405Z" fill="#F8F8F8"/>
<path d="M251.208 183.326C251.875 183.326 252.416 182.785 252.416 182.118C252.416 181.451 251.875 180.91 251.208 180.91C250.541 180.91 250 181.451 250 182.118C250 182.785 250.541 183.326 251.208 183.326Z" fill="#F8F8F8"/>
<path d="M271.109 183.128C271.721 183.128 272.218 182.632 272.218 182.019C272.218 181.407 271.721 180.91 271.109 180.91C270.497 180.91 270 181.407 270 182.019C270 182.632 270.497 183.128 271.109 183.128Z" fill="#F8F8F8"/>
<path opacity="0.5" d="M11.4704 203.351C12.0063 203.351 12.4408 202.917 12.4408 202.381C12.4408 201.845 12.0063 201.411 11.4704 201.411C10.9345 201.411 10.5 201.845 10.5 202.381C10.5 202.917 10.9345 203.351 11.4704 203.351Z" fill="#F8F8F8"/>
<path opacity="0.5" d="M31.0496 203.009C31.6293 203.009 32.0992 202.539 32.0992 201.96C32.0992 201.38 31.6293 200.91 31.0496 200.91C30.4699 200.91 30 201.38 30 201.96C30 202.539 30.4699 203.009 31.0496 203.009Z" fill="#F8F8F8"/>
<path d="M51.1486 203.207C51.783 203.207 52.2972 202.693 52.2972 202.059C52.2972 201.424 51.783 200.91 51.1486 200.91C50.5142 200.91 50 201.424 50 202.059C50 202.693 50.5142 203.207 51.1486 203.207Z" fill="#F8F8F8"/>
<path d="M71.2278 203.366C71.9059 203.366 72.4556 202.816 72.4556 202.138C72.4556 201.46 71.9059 200.91 71.2278 200.91C70.5497 200.91 70 201.46 70 202.138C70 202.816 70.5497 203.366 71.2278 203.366Z" fill="#F8F8F8"/>
<path d="M91.307 203.524C92.0288 203.524 92.614 202.939 92.614 202.217C92.614 201.495 92.0288 200.91 91.307 200.91C90.5852 200.91 90 201.495 90 202.217C90 202.939 90.5852 203.524 91.307 203.524Z" fill="#F8F8F8"/>
<path d="M191.406 203.722C192.183 203.722 192.812 203.093 192.812 202.316C192.812 201.54 192.183 200.91 191.406 200.91C190.629 200.91 190 201.54 190 202.316C190 203.093 190.629 203.722 191.406 203.722Z" fill="#F8F8F8"/>
<path d="M211.386 203.682C212.152 203.682 212.772 203.061 212.772 202.296C212.772 201.53 212.152 200.91 211.386 200.91C210.621 200.91 210 201.53 210 202.296C210 203.061 210.621 203.682 211.386 203.682Z" fill="#F8F8F8"/>
<path d="M231.347 203.603C232.09 203.603 232.693 203 232.693 202.257C232.693 201.513 232.09 200.91 231.347 200.91C230.603 200.91 230 201.513 230 202.257C230 203 230.603 203.603 231.347 203.603Z" fill="#F8F8F8"/>
<path d="M251.287 203.484C251.998 203.484 252.574 202.908 252.574 202.197C252.574 201.486 251.998 200.91 251.287 200.91C250.576 200.91 250 201.486 250 202.197C250 202.908 250.576 203.484 251.287 203.484Z" fill="#F8F8F8"/>
<path d="M271.208 203.326C271.875 203.326 272.416 202.785 272.416 202.118C272.416 201.451 271.875 200.91 271.208 200.91C270.541 200.91 270 201.451 270 202.118C270 202.785 270.541 203.326 271.208 203.326Z" fill="#F8F8F8"/>
<path opacity="0.5" d="M11.4902 223.39C12.0371 223.39 12.4804 222.947 12.4804 222.4C12.4804 221.853 12.0371 221.41 11.4902 221.41C10.9433 221.41 10.5 221.853 10.5 222.4C10.5 222.947 10.9433 223.39 11.4902 223.39Z" fill="#F8F8F8"/>
<path opacity="0.5" d="M31.0892 223.088C31.6907 223.088 32.1784 222.6 32.1784 221.999C32.1784 221.397 31.6907 220.91 31.0892 220.91C30.4877 220.91 30 221.397 30 221.999C30 222.6 30.4877 223.088 31.0892 223.088Z" fill="#F8F8F8"/>
<path d="M51.1882 223.286C51.8444 223.286 52.3764 222.754 52.3764 222.098C52.3764 221.442 51.8444 220.91 51.1882 220.91C50.532 220.91 50 221.442 50 222.098C50 222.754 50.532 223.286 51.1882 223.286Z" fill="#F8F8F8"/>
<path d="M71.2674 223.445C71.9674 223.445 72.5348 222.878 72.5348 222.178C72.5348 221.478 71.9674 220.911 71.2674 220.911C70.5674 220.911 70 221.478 70 222.178C70 222.878 70.5674 223.445 71.2674 223.445Z" fill="#F8F8F8"/>
<path d="M91.3466 223.603C92.0903 223.603 92.6932 223 92.6932 222.257C92.6932 221.513 92.0903 220.91 91.3466 220.91C90.6029 220.91 90 221.513 90 222.257C90 223 90.6029 223.603 91.3466 223.603Z" fill="#F8F8F8"/>
<path d="M191.465 223.841C192.275 223.841 192.931 223.185 192.931 222.376C192.931 221.567 192.275 220.911 191.465 220.911C190.656 220.911 190 221.567 190 222.376C190 223.185 190.656 223.841 191.465 223.841Z" fill="#F8F8F8"/>
<path d="M211.446 223.801C212.244 223.801 212.891 223.154 212.891 222.356C212.891 221.557 212.244 220.91 211.446 220.91C210.647 220.91 210 221.557 210 222.356C210 223.154 210.647 223.801 211.446 223.801Z" fill="#F8F8F8"/>
<path opacity="0.3" d="M231.406 223.722C232.183 223.722 232.812 223.093 232.812 222.316C232.812 221.54 232.183 220.91 231.406 220.91C230.629 220.91 230 221.54 230 222.316C230 223.093 230.629 223.722 231.406 223.722Z" fill="#F8F8F8"/>
<path opacity="0.3" d="M251.366 223.643C252.121 223.643 252.733 223.032 252.733 222.277C252.733 221.522 252.121 220.911 251.366 220.911C250.612 220.911 250 221.522 250 222.277C250 223.032 250.612 223.643 251.366 223.643Z" fill="#F8F8F8"/>
<path opacity="0.3" d="M271.287 223.484C271.998 223.484 272.574 222.908 272.574 222.197C272.574 221.486 271.998 220.91 271.287 220.91C270.576 220.91 270 221.486 270 222.197C270 222.908 270.576 223.484 271.287 223.484Z" fill="#F8F8F8"/>
</g>
</g>
</g>
<g filter="url(#filter0_i_293_9338)">
<g style="mix-blend-mode:luminosity">
<path d="M187.5 60.4102H95.5C85.5589 60.4102 77.5 68.469 77.5 78.4102V145.41C77.5 155.351 85.5589 163.41 95.5 163.41H187.5C197.441 163.41 205.5 155.351 205.5 145.41V78.4102C205.5 68.469 197.441 60.4102 187.5 60.4102Z" fill="#1B1525" fill-opacity="0.01"/>
</g>
<path d="M187.5 61.1602H95.5C85.9731 61.1602 78.25 68.8832 78.25 78.4102V145.41C78.25 154.937 85.9731 162.66 95.5 162.66H187.5C197.027 162.66 204.75 154.937 204.75 145.41V78.4102C204.75 68.8832 197.027 61.1602 187.5 61.1602Z" stroke="url(#paint1_linear_293_9338)" stroke-opacity="0.25" stroke-width="1.5"/>
</g>
<g filter="url(#filter1_d_293_9338)">
<g style="mix-blend-mode:luminosity">
<path d="M187.5 66.4102H95.5C88.8726 66.4102 83.5 71.7827 83.5 78.4102V130.41C83.5 137.038 88.8726 142.41 95.5 142.41H187.5C194.127 142.41 199.5 137.038 199.5 130.41V78.4102C199.5 71.7827 194.127 66.4102 187.5 66.4102Z" fill="#F8F8F8" fill-opacity="0.05"/>
</g>
<path d="M187.5 67.1602H95.5C89.2868 67.1602 84.25 72.197 84.25 78.4102V130.41C84.25 136.623 89.2868 141.66 95.5 141.66H187.5C193.713 141.66 198.75 136.623 198.75 130.41V78.4102C198.75 72.197 193.713 67.1602 187.5 67.1602Z" stroke="url(#paint2_linear_293_9338)" stroke-opacity="0.25" stroke-width="1.5"/>
</g>
<g filter="url(#filter2_i_293_9338)">
<g style="mix-blend-mode:luminosity">
<path fill-rule="evenodd" clip-rule="evenodd" d="M132.7 151.249C128.676 151.249 124.852 148.019 120.829 148.019H73.5C70.1863 148.019 67.5 150.705 67.5 154.019V158.019C67.5 161.332 70.1863 164.019 73.5 164.019H209.5C212.814 164.019 215.5 161.332 215.5 158.019V154.019C215.5 150.705 212.814 148.019 209.5 148.019H162.172C158.148 148.019 154.324 151.249 150.3 151.249H132.7Z" fill="#1B1525" fill-opacity="0.01"/>
</g>
<mask id="mask2_293_9338" style="mask-type:luminance" maskUnits="userSpaceOnUse" x="67" y="148" width="149" height="17">
<path fill-rule="evenodd" clip-rule="evenodd" d="M132.7 151.249C128.676 151.249 124.852 148.019 120.829 148.019H73.5C70.1863 148.019 67.5 150.705 67.5 154.019V158.019C67.5 161.332 70.1863 164.019 73.5 164.019H209.5C212.814 164.019 215.5 161.332 215.5 158.019V154.019C215.5 150.705 212.814 148.019 209.5 148.019H162.172C158.148 148.019 154.324 151.249 150.3 151.249H132.7Z" fill="white"/>
</mask>
<g mask="url(#mask2_293_9338)">
<path d="M73.5 149.519H120.829V146.519H73.5V149.519ZM69 154.019C69 151.533 71.0147 149.519 73.5 149.519V146.519C69.3579 146.519 66 149.876 66 154.019H69ZM69 158.019V154.019H66V158.019H69ZM73.5 162.519C71.0147 162.519 69 160.504 69 158.019H66C66 162.161 69.3579 165.519 73.5 165.519V162.519ZM209.5 162.519H73.5V165.519H209.5V162.519ZM214 158.019C214 160.504 211.985 162.519 209.5 162.519V165.519C213.642 165.519 217 162.161 217 158.019H214ZM214 154.019V158.019H217V154.019H214ZM209.5 149.519C211.985 149.519 214 151.533 214 154.019H217C217 149.876 213.642 146.519 209.5 146.519V149.519ZM162.172 149.519H209.5V146.519H162.172V149.519ZM150.3 149.749H132.7V152.749H150.3V149.749ZM162.172 146.519C159.809 146.519 157.565 147.464 155.665 148.247C153.641 149.08 151.962 149.749 150.3 149.749V152.749C152.662 152.749 154.906 151.803 156.807 151.021C158.83 150.188 160.51 149.519 162.172 149.519V146.519ZM120.829 149.519C122.49 149.519 124.17 150.188 126.193 151.021C128.094 151.803 130.338 152.749 132.7 152.749V149.749C131.038 149.749 129.359 149.08 127.335 148.247C125.435 147.464 123.191 146.519 120.829 146.519V149.519Z" fill="url(#paint3_linear_293_9338)" fill-opacity="0.25"/>
</g>
</g>
<mask id="mask3_293_9338" style="mask-type:alpha" maskUnits="userSpaceOnUse" x="-63" y="66" width="409" height="77">
<path d="M345.5 66.4102H-62.5V142.41H345.5V66.4102Z" fill="url(#paint4_linear_293_9338)"/>
</mask>
<g mask="url(#mask3_293_9338)">
<g filter="url(#filter3_i_293_9338)">
<g style="mix-blend-mode:luminosity">
<path d="M-10.5 72.4102H-50.5C-57.1274 72.4102 -62.5 77.7827 -62.5 84.4102V124.41C-62.5 131.038 -57.1274 136.41 -50.5 136.41H-10.5C-3.87258 136.41 1.5 131.038 1.5 124.41V84.4102C1.5 77.7827 -3.87258 72.4102 -10.5 72.4102Z" fill="white" fill-opacity="0.01"/>
</g>
<path d="M-10.5 73.1602H-50.5C-56.7132 73.1602 -61.75 78.197 -61.75 84.4102V124.41C-61.75 130.623 -56.7132 135.66 -50.5 135.66H-10.5C-4.2868 135.66 0.75 130.623 0.75 124.41V84.4102C0.75 78.197 -4.2868 73.1602 -10.5 73.1602Z" stroke="url(#paint5_linear_293_9338)" stroke-opacity="0.25" stroke-width="1.5"/>
</g>
<g filter="url(#filter4_i_293_9338)">
<g style="mix-blend-mode:luminosity">
<path d="M59.5 72.4102H19.5C12.8726 72.4102 7.5 77.7827 7.5 84.4102V124.41C7.5 131.038 12.8726 136.41 19.5 136.41H59.5C66.1274 136.41 71.5 131.038 71.5 124.41V84.4102C71.5 77.7827 66.1274 72.4102 59.5 72.4102Z" fill="white" fill-opacity="0.01"/>
</g>
<path d="M59.5 73.1602H19.5C13.2868 73.1602 8.25 78.197 8.25 84.4102V124.41C8.25 130.623 13.2868 135.66 19.5 135.66H59.5C65.7132 135.66 70.75 130.623 70.75 124.41V84.4102C70.75 78.197 65.7132 73.1602 59.5 73.1602Z" stroke="url(#paint6_linear_293_9338)" stroke-opacity="0.25" stroke-width="1.5"/>
<path opacity="0.5" d="M46.5 84.4102H20.5C19.9477 84.4102 19.5 84.8579 19.5 85.4102V87.4102C19.5 87.9624 19.9477 88.4102 20.5 88.4102H46.5C47.0523 88.4102 47.5 87.9624 47.5 87.4102V85.4102C47.5 84.8579 47.0523 84.4102 46.5 84.4102Z" fill="#F8F8F8"/>
<path opacity="0.1" d="M58.5 91.4102H20.5C19.9477 91.4102 19.5 91.8579 19.5 92.4102V94.4102C19.5 94.9624 19.9477 95.4102 20.5 95.4102H58.5C59.0523 95.4102 59.5 94.9624 59.5 94.4102V92.4102C59.5 91.8579 59.0523 91.4102 58.5 91.4102Z" fill="#F8F8F8"/>
<path opacity="0.1" d="M58.5 98.4102H20.5C19.9477 98.4102 19.5 98.8579 19.5 99.4102V101.41C19.5 101.962 19.9477 102.41 20.5 102.41H58.5C59.0523 102.41 59.5 101.962 59.5 101.41V99.4102C59.5 98.8579 59.0523 98.4102 58.5 98.4102Z" fill="#F8F8F8"/>
</g>
<g filter="url(#filter5_di_293_9338)">
<g style="mix-blend-mode:luminosity">
<path d="M187.5 66.4102H95.5C88.8726 66.4102 83.5 71.7827 83.5 78.4102V130.41C83.5 137.038 88.8726 142.41 95.5 142.41H187.5C194.127 142.41 199.5 137.038 199.5 130.41V78.4102C199.5 71.7827 194.127 66.4102 187.5 66.4102Z" fill="white" fill-opacity="0.05"/>
</g>
<path d="M187.5 67.1602H95.5C89.2868 67.1602 84.25 72.197 84.25 78.4102V130.41C84.25 136.623 89.2868 141.66 95.5 141.66H187.5C193.713 141.66 198.75 136.623 198.75 130.41V78.4102C198.75 72.197 193.713 67.1602 187.5 67.1602Z" stroke="#F8F8F8" stroke-opacity="0.4" stroke-width="1.5"/>
<path opacity="0.5" d="M122.5 78.4102H96.5C95.9477 78.4102 95.5 78.8579 95.5 79.4102V81.4102C95.5 81.9624 95.9477 82.4102 96.5 82.4102H122.5C123.052 82.4102 123.5 81.9624 123.5 81.4102V79.4102C123.5 78.8579 123.052 78.4102 122.5 78.4102Z" fill="#F8F8F8"/>
<path opacity="0.1" d="M146.5 84.4102H96.5C95.9477 84.4102 95.5 84.8579 95.5 85.4102V87.4102C95.5 87.9624 95.9477 88.4102 96.5 88.4102H146.5C147.052 88.4102 147.5 87.9624 147.5 87.4102V85.4102C147.5 84.8579 147.052 84.4102 146.5 84.4102Z" fill="#F8F8F8"/>
<path opacity="0.1" d="M122.5 90.4102H96.5C95.9477 90.4102 95.5 90.8579 95.5 91.4102V93.4102C95.5 93.9624 95.9477 94.4102 96.5 94.4102H122.5C123.052 94.4102 123.5 93.9624 123.5 93.4102V91.4102C123.5 90.8579 123.052 90.4102 122.5 90.4102Z" fill="#F8F8F8"/>
<g filter="url(#filter6_di_293_9338)">
<mask id="mask4_293_9338" style="mask-type:luminance" maskUnits="userSpaceOnUse" x="158" y="74" width="33" height="33">
<path d="M190.5 90.4102C190.5 81.5736 183.337 74.4102 174.5 74.4102C165.663 74.4102 158.5 81.5736 158.5 90.4102C158.5 99.2467 165.663 106.41 174.5 106.41C183.337 106.41 190.5 99.2467 190.5 90.4102Z" fill="white"/>
</mask>
<g mask="url(#mask4_293_9338)">
<path d="M190.5 90.4102C190.5 81.5736 183.337 74.4102 174.5 74.4102C165.663 74.4102 158.5 81.5736 158.5 90.4102C158.5 99.2467 165.663 106.41 174.5 106.41C183.337 106.41 190.5 99.2467 190.5 90.4102Z" fill="#F8F8F8" fill-opacity="0.01"/>
<g filter="url(#filter7_f_293_9338)">
<path d="M185.089 82.1748C185.089 66.5808 172.447 53.9395 156.853 53.9395C141.26 53.9395 128.618 66.5808 128.618 82.1748C128.618 97.7687 141.26 110.41 156.853 110.41C172.447 110.41 185.089 97.7687 185.089 82.1748Z" fill="#F8F8F8" fill-opacity="0.2"/>
</g>
<g filter="url(#filter8_dd_293_9338)">
<path fill-rule="evenodd" clip-rule="evenodd" d="M180.11 86.1342C180.63 86.6549 180.63 87.4991 180.11 88.0198L174.11 94.0198C173.589 94.5405 172.745 94.5405 172.224 94.0198L169.557 91.3531C169.037 90.8324 169.037 89.9882 169.557 89.4675C170.078 88.9468 170.922 88.9468 171.443 89.4675L173.167 91.1914L178.224 86.1342C178.745 85.6135 179.589 85.6135 180.11 86.1342Z" fill="url(#paint7_linear_293_9338)"/>
</g>
</g>
</g>
</g>
<g filter="url(#filter9_i_293_9338)">
<g style="mix-blend-mode:luminosity">
<path d="M263.5 72.4102H223.5C216.873 72.4102 211.5 77.7827 211.5 84.4102V124.41C211.5 131.038 216.873 136.41 223.5 136.41H263.5C270.127 136.41 275.5 131.038 275.5 124.41V84.4102C275.5 77.7827 270.127 72.4102 263.5 72.4102Z" fill="white" fill-opacity="0.01"/>
</g>
<path d="M263.5 73.1602H223.5C217.287 73.1602 212.25 78.197 212.25 84.4102V124.41C212.25 130.623 217.287 135.66 223.5 135.66H263.5C269.713 135.66 274.75 130.623 274.75 124.41V84.4102C274.75 78.197 269.713 73.1602 263.5 73.1602Z" stroke="url(#paint8_linear_293_9338)" stroke-opacity="0.25" stroke-width="1.5"/>
<path opacity="0.5" d="M250.5 84.4102H224.5C223.948 84.4102 223.5 84.8579 223.5 85.4102V87.4102C223.5 87.9624 223.948 88.4102 224.5 88.4102H250.5C251.052 88.4102 251.5 87.9624 251.5 87.4102V85.4102C251.5 84.8579 251.052 84.4102 250.5 84.4102Z" fill="#F8F8F8"/>
<path opacity="0.1" d="M262.5 91.4102H224.5C223.948 91.4102 223.5 91.8579 223.5 92.4102V94.4102C223.5 94.9624 223.948 95.4102 224.5 95.4102H262.5C263.052 95.4102 263.5 94.9624 263.5 94.4102V92.4102C263.5 91.8579 263.052 91.4102 262.5 91.4102Z" fill="#F8F8F8"/>
<path opacity="0.1" d="M262.5 98.4102H224.5C223.948 98.4102 223.5 98.8579 223.5 99.4102V101.41C223.5 101.962 223.948 102.41 224.5 102.41H262.5C263.052 102.41 263.5 101.962 263.5 101.41V99.4102C263.5 98.8579 263.052 98.4102 262.5 98.4102Z" fill="#F8F8F8"/>
</g>
<g filter="url(#filter10_i_293_9338)">
<g style="mix-blend-mode:luminosity">
<path d="M333.5 72.4102H293.5C286.873 72.4102 281.5 77.7827 281.5 84.4102V124.41C281.5 131.038 286.873 136.41 293.5 136.41H333.5C340.127 136.41 345.5 131.038 345.5 124.41V84.4102C345.5 77.7827 340.127 72.4102 333.5 72.4102Z" fill="white" fill-opacity="0.01"/>
</g>
<path d="M333.5 73.1602H293.5C287.287 73.1602 282.25 78.197 282.25 84.4102V124.41C282.25 130.623 287.287 135.66 293.5 135.66H333.5C339.713 135.66 344.75 130.623 344.75 124.41V84.4102C344.75 78.197 339.713 73.1602 333.5 73.1602Z" stroke="url(#paint9_linear_293_9338)" stroke-opacity="0.25" stroke-width="1.5"/>
</g>
</g>
<mask id="mask5_293_9338" style="mask-type:alpha" maskUnits="userSpaceOnUse" x="-38" y="-92" width="365" height="409">
<path d="M326.5 -91.5898H-37.5V316.41H326.5V-91.5898Z" fill="url(#paint10_linear_293_9338)"/>
</mask>
<g mask="url(#mask5_293_9338)">
<path opacity="0.1" d="M69.5 312.411V211.463C69.5 210.463 69.1256 209.514 68.4505 208.776L50.9969 189.709C50.2392 188.882 49.1686 188.41 48.0464 188.41H5.5H-37.0464C-38.1686 188.41 -39.2392 188.882 -39.9969 189.709L-57.4505 208.776C-58.1256 209.514 -58.5 210.463 -58.5 211.463V312.411C-58.5 314.62 -56.7091 316.41 -54.5 316.41H65.5C67.7091 316.41 69.5 314.62 69.5 312.411Z" fill="url(#paint11_linear_293_9338)"/>
<path opacity="0.5" d="M205.5 312.411V211.463C205.5 210.463 205.126 209.514 204.451 208.776L186.997 189.709C186.239 188.882 185.169 188.41 184.046 188.41H141.5H98.9536C97.8314 188.41 96.7608 188.882 96.0031 189.709L78.5495 208.776C77.8744 209.514 77.5 210.463 77.5 211.463V312.411C77.5 314.62 79.2909 316.41 81.5 316.41H201.5C203.709 316.41 205.5 314.62 205.5 312.411Z" fill="url(#paint12_linear_293_9338)"/>
<path opacity="0.5" d="M205.5 312.411V211.463C205.5 210.463 205.126 209.514 204.451 208.776L186.997 189.709C186.239 188.882 185.169 188.41 184.046 188.41H141.5H98.9536C97.8314 188.41 96.7608 188.882 96.0031 189.709L78.5495 208.776C77.8744 209.514 77.5 210.463 77.5 211.463V312.411C77.5 314.62 79.2909 316.41 81.5 316.41H201.5C203.709 316.41 205.5 314.62 205.5 312.411Z" stroke="url(#paint13_linear_293_9338)" stroke-width="1.5"/>
<path opacity="0.1" d="M341.5 312.411V211.463C341.5 210.463 341.126 209.514 340.451 208.776L322.997 189.709C322.239 188.882 321.169 188.41 320.046 188.41H277.5H234.954C233.831 188.41 232.761 188.882 232.003 189.709L214.55 208.776C213.874 209.514 213.5 210.463 213.5 211.463V312.411C213.5 314.62 215.291 316.41 217.5 316.41H337.5C339.709 316.41 341.5 314.62 341.5 312.411Z" fill="url(#paint14_linear_293_9338)"/>
<path opacity="0.1" d="M68.5 -87.5903V13.3576C68.5 14.3574 68.1256 15.3066 67.4505 16.0441L49.9969 35.111C49.2392 35.9388 48.1686 36.41 47.0464 36.41H4.5H-38.0464C-39.1686 36.41 -40.2392 35.9388 -40.9969 35.111L-58.4505 16.0441C-59.1256 15.3066 -59.5 14.3573 -59.5 13.3575V-87.5903C-59.5 -89.7995 -57.7091 -91.5898 -55.5 -91.5898H64.5C66.7091 -91.5898 68.5 -89.7995 68.5 -87.5903Z" fill="url(#paint15_linear_293_9338)"/>
<path opacity="0.5" d="M204.5 -87.5903V13.3576C204.5 14.3574 204.126 15.3066 203.451 16.0441L185.997 35.111C185.239 35.9388 184.169 36.41 183.046 36.41H140.5H97.9536C96.8314 36.41 95.7608 35.9388 95.0031 35.111L77.5495 16.0441C76.8744 15.3066 76.5 14.3573 76.5 13.3575V-87.5903C76.5 -89.7995 78.2909 -91.5898 80.5 -91.5898H200.5C202.709 -91.5898 204.5 -89.7995 204.5 -87.5903Z" fill="url(#paint16_linear_293_9338)"/>
<path opacity="0.5" d="M204.5 -87.5903V13.3576C204.5 14.3574 204.126 15.3066 203.451 16.0441L185.997 35.111C185.239 35.9388 184.169 36.41 183.046 36.41H140.5H97.9536C96.8314 36.41 95.7608 35.9388 95.0031 35.111L77.5495 16.0441C76.8744 15.3066 76.5 14.3573 76.5 13.3575V-87.5903C76.5 -89.7995 78.2909 -91.5898 80.5 -91.5898H200.5C202.709 -91.5898 204.5 -89.7995 204.5 -87.5903Z" stroke="url(#paint17_linear_293_9338)" stroke-width="1.5"/>
<path opacity="0.1" d="M340.5 -87.5903V13.3576C340.5 14.3574 340.126 15.3066 339.451 16.0441L321.997 35.111C321.239 35.9388 320.169 36.41 319.046 36.41H276.5H233.954C232.831 36.41 231.761 35.9388 231.003 35.111L213.55 16.0441C212.874 15.3066 212.5 14.3573 212.5 13.3575V-87.5903C212.5 -89.7995 214.291 -91.5898 216.5 -91.5898H336.5C338.709 -91.5898 340.5 -89.7995 340.5 -87.5903Z" fill="url(#paint18_linear_293_9338)"/>
</g>
<g filter="url(#filter11_di_293_9338)">
<g style="mix-blend-mode:luminosity">
<path d="M145.5 15.4102C145.5 13.201 143.709 11.4102 141.5 11.4102C139.291 11.4102 137.5 13.201 137.5 15.4102C137.5 17.6193 139.291 19.4102 141.5 19.4102C143.709 19.4102 145.5 17.6193 145.5 15.4102Z" fill="#1B1525" fill-opacity="0.01"/>
</g>
<path d="M144.75 15.4102C144.75 13.6152 143.295 12.1602 141.5 12.1602C139.705 12.1602 138.25 13.6152 138.25 15.4102C138.25 17.2051 139.705 18.6602 141.5 18.6602C143.295 18.6602 144.75 17.2051 144.75 15.4102Z" stroke="url(#paint19_linear_293_9338)" stroke-opacity="0.25" stroke-width="1.5"/>
</g>
<g filter="url(#filter12_di_293_9338)">
<g style="mix-blend-mode:luminosity">
<path d="M145.5 208.41C145.5 206.201 143.709 204.41 141.5 204.41C139.291 204.41 137.5 206.201 137.5 208.41C137.5 210.619 139.291 212.41 141.5 212.41C143.709 212.41 145.5 210.619 145.5 208.41Z" fill="#1B1525" fill-opacity="0.01"/>
</g>
<path d="M144.75 208.41C144.75 206.615 143.295 205.16 141.5 205.16C139.705 205.16 138.25 206.615 138.25 208.41C138.25 210.205 139.705 211.66 141.5 211.66C143.295 211.66 144.75 210.205 144.75 208.41Z" stroke="url(#paint20_linear_293_9338)" stroke-opacity="0.25" stroke-width="1.5"/>
</g>
<mask id="mask6_293_9338" style="mask-type:alpha" maskUnits="userSpaceOnUse" x="-41" y="-63" width="365" height="353">
<path d="M323.5 -62.5898H-40.5V289.41H323.5V-62.5898Z" fill="url(#paint21_linear_293_9338)"/>
</mask>
<g mask="url(#mask6_293_9338)">
<path d="M146.5 175.41H136.5C135.948 175.41 135.5 175.858 135.5 176.41V178.41C135.5 178.962 135.948 179.41 136.5 179.41H146.5C147.052 179.41 147.5 178.962 147.5 178.41V176.41C147.5 175.858 147.052 175.41 146.5 175.41Z" fill="#F8F8F8" fill-opacity="0.1"/>
<path opacity="0.1" d="M137.5 179.41V270.41" stroke="url(#paint22_linear_293_9338)" stroke-width="1.5"/>
<path opacity="0.1" d="M141.5 179.41V270.41" stroke="url(#paint23_linear_293_9338)" stroke-width="1.5"/>
<path opacity="0.1" d="M145.5 179.41V270.41" stroke="url(#paint24_linear_293_9338)" stroke-width="1.5"/>
<path opacity="0.5" d="M141.5 193.41V181.41" stroke="#F8F8F8" stroke-width="1.5"/>
<path d="M146.5 51.4102H136.5C135.948 51.4102 135.5 50.9624 135.5 50.4102V48.4102C135.5 47.8579 135.948 47.4102 136.5 47.4102H146.5C147.052 47.4102 147.5 47.8579 147.5 48.4102V50.4102C147.5 50.9624 147.052 51.4102 146.5 51.4102Z" fill="#F8F8F8" fill-opacity="0.1"/>
<path opacity="0.1" d="M137.5 47.4102V-43.5898" stroke="url(#paint25_linear_293_9338)" stroke-width="1.5"/>
<path opacity="0.1" d="M141.5 47.4102V-43.5898" stroke="url(#paint26_linear_293_9338)" stroke-width="1.5"/>
<path opacity="0.1" d="M145.5 47.4102V-43.5898" stroke="url(#paint27_linear_293_9338)" stroke-width="1.5"/>
<path opacity="0.5" d="M141.5 30.4102V42.4102" stroke="#F8F8F8" stroke-width="1.5"/>
</g>
</g>
<defs>
<filter id="filter0_i_293_9338" x="77.5" y="60.4102" width="128" height="103" filterUnits="userSpaceOnUse" color-interpolation-filters="sRGB">
<feFlood flood-opacity="0" result="BackgroundImageFix"/>
<feBlend mode="normal" in="SourceGraphic" in2="BackgroundImageFix" result="shape"/>
<feColorMatrix in="SourceAlpha" type="matrix" values="0 0 0 0 0 0 0 0 0 0 0 0 0 0 0 0 0 0 127 0" result="hardAlpha"/>
<feOffset/>
<feGaussianBlur stdDeviation="4"/>
<feComposite in2="hardAlpha" operator="arithmetic" k2="-1" k3="1"/>
<feColorMatrix type="matrix" values="0 0 0 0 0.972549 0 0 0 0 0.972549 0 0 0 0 0.972549 0 0 0 0.25 0"/>
<feBlend mode="normal" in2="shape" result="effect1_innerShadow_293_9338"/>
</filter>
<filter id="filter1_d_293_9338" x="59.5" y="66.4102" width="164" height="124" filterUnits="userSpaceOnUse" color-interpolation-filters="sRGB">
<feFlood flood-opacity="0" result="BackgroundImageFix"/>
<feColorMatrix in="SourceAlpha" type="matrix" values="0 0 0 0 0 0 0 0 0 0 0 0 0 0 0 0 0 0 127 0" result="hardAlpha"/>
<feOffset dy="24"/>
<feGaussianBlur stdDeviation="12"/>
<feComposite in2="hardAlpha" operator="out"/>
<feColorMatrix type="matrix" values="0 0 0 0 0 0 0 0 0 0 0 0 0 0 0 0 0 0 0.3 0"/>
<feBlend mode="normal" in2="BackgroundImageFix" result="effect1_dropShadow_293_9338"/>
<feBlend mode="normal" in="SourceGraphic" in2="effect1_dropShadow_293_9338" result="shape"/>
</filter>
<filter id="filter2_i_293_9338" x="67.5" y="148.019" width="148" height="16" filterUnits="userSpaceOnUse" color-interpolation-filters="sRGB">
<feFlood flood-opacity="0" result="BackgroundImageFix"/>
<feBlend mode="normal" in="SourceGraphic" in2="BackgroundImageFix" result="shape"/>
<feColorMatrix in="SourceAlpha" type="matrix" values="0 0 0 0 0 0 0 0 0 0 0 0 0 0 0 0 0 0 127 0" result="hardAlpha"/>
<feOffset/>
<feGaussianBlur stdDeviation="4"/>
<feComposite in2="hardAlpha" operator="arithmetic" k2="-1" k3="1"/>
<feColorMatrix type="matrix" values="0 0 0 0 0.972549 0 0 0 0 0.972549 0 0 0 0 0.972549 0 0 0 0.25 0"/>
<feBlend mode="normal" in2="shape" result="effect1_innerShadow_293_9338"/>
</filter>
<filter id="filter3_i_293_9338" x="-62.5" y="72.4102" width="66" height="68" filterUnits="userSpaceOnUse" color-interpolation-filters="sRGB">
<feFlood flood-opacity="0" result="BackgroundImageFix"/>
<feBlend mode="normal" in="SourceGraphic" in2="BackgroundImageFix" result="shape"/>
<feColorMatrix in="SourceAlpha" type="matrix" values="0 0 0 0 0 0 0 0 0 0 0 0 0 0 0 0 0 0 127 0" result="hardAlpha"/>
<feOffset dx="2" dy="4"/>
<feGaussianBlur stdDeviation="8"/>
<feComposite in2="hardAlpha" operator="arithmetic" k2="-1" k3="1"/>
<feColorMatrix type="matrix" values="0 0 0 0 0.972549 0 0 0 0 0.972549 0 0 0 0 0.972549 0 0 0 0.06 0"/>
<feBlend mode="normal" in2="shape" result="effect1_innerShadow_293_9338"/>
</filter>
<filter id="filter4_i_293_9338" x="7.5" y="72.4102" width="66" height="68" filterUnits="userSpaceOnUse" color-interpolation-filters="sRGB">
<feFlood flood-opacity="0" result="BackgroundImageFix"/>
<feBlend mode="normal" in="SourceGraphic" in2="BackgroundImageFix" result="shape"/>
<feColorMatrix in="SourceAlpha" type="matrix" values="0 0 0 0 0 0 0 0 0 0 0 0 0 0 0 0 0 0 127 0" result="hardAlpha"/>
<feOffset dx="2" dy="4"/>
<feGaussianBlur stdDeviation="8"/>
<feComposite in2="hardAlpha" operator="arithmetic" k2="-1" k3="1"/>
<feColorMatrix type="matrix" values="0 0 0 0 0.972549 0 0 0 0 0.972549 0 0 0 0 0.972549 0 0 0 0.06 0"/>
<feBlend mode="normal" in2="shape" result="effect1_innerShadow_293_9338"/>
</filter>
<filter id="filter5_di_293_9338" x="35.5" y="66.4102" width="212" height="172" filterUnits="userSpaceOnUse" color-interpolation-filters="sRGB">
<feFlood flood-opacity="0" result="BackgroundImageFix"/>
<feColorMatrix in="SourceAlpha" type="matrix" values="0 0 0 0 0 0 0 0 0 0 0 0 0 0 0 0 0 0 127 0" result="hardAlpha"/>
<feOffset dy="48"/>
<feGaussianBlur stdDeviation="24"/>
<feComposite in2="hardAlpha" operator="out"/>
<feColorMatrix type="matrix" values="0 0 0 0 0.109804 0 0 0 0 0.12549 0 0 0 0 0.156863 0 0 0 0.5 0"/>
<feBlend mode="normal" in2="BackgroundImageFix" result="effect1_dropShadow_293_9338"/>
<feBlend mode="normal" in="SourceGraphic" in2="effect1_dropShadow_293_9338" result="shape"/>
<feColorMatrix in="SourceAlpha" type="matrix" values="0 0 0 0 0 0 0 0 0 0 0 0 0 0 0 0 0 0 127 0" result="hardAlpha"/>
<feOffset dx="2" dy="4"/>
<feGaussianBlur stdDeviation="8"/>
<feComposite in2="hardAlpha" operator="arithmetic" k2="-1" k3="1"/>
<feColorMatrix type="matrix" values="0 0 0 0 0.972549 0 0 0 0 0.972549 0 0 0 0 0.972549 0 0 0 0.06 0"/>
<feBlend mode="normal" in2="shape" result="effect2_innerShadow_293_9338"/>
</filter>
<filter id="filter6_di_293_9338" x="141.559" y="74.4102" width="65.8824" height="71.5294" filterUnits="userSpaceOnUse" color-interpolation-filters="sRGB">
<feFlood flood-opacity="0" result="BackgroundImageFix"/>
<feColorMatrix in="SourceAlpha" type="matrix" values="0 0 0 0 0 0 0 0 0 0 0 0 0 0 0 0 0 0 127 0" result="hardAlpha"/>
<feOffset dy="22.5882"/>
<feGaussianBlur stdDeviation="8.47059"/>
<feComposite in2="hardAlpha" operator="out"/>
<feColorMatrix type="matrix" values="0 0 0 0 0 0 0 0 0 0 0 0 0 0 0 0 0 0 0.4 0"/>
<feBlend mode="normal" in2="BackgroundImageFix" result="effect1_dropShadow_293_9338"/>
<feBlend mode="normal" in="SourceGraphic" in2="effect1_dropShadow_293_9338" result="shape"/>
<feColorMatrix in="SourceAlpha" type="matrix" values="0 0 0 0 0 0 0 0 0 0 0 0 0 0 0 0 0 0 127 0" result="hardAlpha"/>
<feOffset/>
<feGaussianBlur stdDeviation="2.82353"/>
<feComposite in2="hardAlpha" operator="arithmetic" k2="-1" k3="1"/>
<feColorMatrix type="matrix" values="0 0 0 0 0.972549 0 0 0 0 0.972549 0 0 0 0 0.972549 0 0 0 0.25 0"/>
<feBlend mode="normal" in2="shape" result="effect2_innerShadow_293_9338"/>
</filter>
<filter id="filter7_f_293_9338" x="100.383" y="25.7043" width="112.941" height="112.941" filterUnits="userSpaceOnUse" color-interpolation-filters="sRGB">
<feFlood flood-opacity="0" result="BackgroundImageFix"/>
<feBlend mode="normal" in="SourceGraphic" in2="BackgroundImageFix" result="shape"/>
<feGaussianBlur stdDeviation="14.1176" result="effect1_foregroundBlur_293_9338"/>
</filter>
<filter id="filter8_dd_293_9338" x="160.167" y="84.7437" width="23.333" height="20.6665" filterUnits="userSpaceOnUse" color-interpolation-filters="sRGB">
<feFlood flood-opacity="0" result="BackgroundImageFix"/>
<feColorMatrix in="SourceAlpha" type="matrix" values="0 0 0 0 0 0 0 0 0 0 0 0 0 0 0 0 0 0 127 0" result="hardAlpha"/>
<feOffset dx="-3" dy="5"/>
<feGaussianBlur stdDeviation="3"/>
<feColorMatrix type="matrix" values="0 0 0 0 0 0 0 0 0 0 0 0 0 0 0 0 0 0 0.2 0"/>
<feBlend mode="normal" in2="BackgroundImageFix" result="effect1_dropShadow_293_9338"/>
<feColorMatrix in="SourceAlpha" type="matrix" values="0 0 0 0 0 0 0 0 0 0 0 0 0 0 0 0 0 0 127 0" result="hardAlpha"/>
<feOffset dx="-1" dy="2"/>
<feGaussianBlur stdDeviation="1.5"/>
<feComposite in2="hardAlpha" operator="out"/>
<feColorMatrix type="matrix" values="0 0 0 0 0 0 0 0 0 0 0 0 0 0 0 0 0 0 0.1 0"/>
<feBlend mode="normal" in2="effect1_dropShadow_293_9338" result="effect2_dropShadow_293_9338"/>
<feBlend mode="normal" in="SourceGraphic" in2="effect2_dropShadow_293_9338" result="shape"/>
</filter>
<filter id="filter9_i_293_9338" x="211.5" y="72.4102" width="66" height="68" filterUnits="userSpaceOnUse" color-interpolation-filters="sRGB">
<feFlood flood-opacity="0" result="BackgroundImageFix"/>
<feBlend mode="normal" in="SourceGraphic" in2="BackgroundImageFix" result="shape"/>
<feColorMatrix in="SourceAlpha" type="matrix" values="0 0 0 0 0 0 0 0 0 0 0 0 0 0 0 0 0 0 127 0" result="hardAlpha"/>
<feOffset dx="2" dy="4"/>
<feGaussianBlur stdDeviation="8"/>
<feComposite in2="hardAlpha" operator="arithmetic" k2="-1" k3="1"/>
<feColorMatrix type="matrix" values="0 0 0 0 0.972549 0 0 0 0 0.972549 0 0 0 0 0.972549 0 0 0 0.06 0"/>
<feBlend mode="normal" in2="shape" result="effect1_innerShadow_293_9338"/>
</filter>
<filter id="filter10_i_293_9338" x="281.5" y="72.4102" width="66" height="68" filterUnits="userSpaceOnUse" color-interpolation-filters="sRGB">
<feFlood flood-opacity="0" result="BackgroundImageFix"/>
<feBlend mode="normal" in="SourceGraphic" in2="BackgroundImageFix" result="shape"/>
<feColorMatrix in="SourceAlpha" type="matrix" values="0 0 0 0 0 0 0 0 0 0 0 0 0 0 0 0 0 0 127 0" result="hardAlpha"/>
<feOffset dx="2" dy="4"/>
<feGaussianBlur stdDeviation="8"/>
<feComposite in2="hardAlpha" operator="arithmetic" k2="-1" k3="1"/>
<feColorMatrix type="matrix" values="0 0 0 0 0.972549 0 0 0 0 0.972549 0 0 0 0 0.972549 0 0 0 0.06 0"/>
<feBlend mode="normal" in2="shape" result="effect1_innerShadow_293_9338"/>
</filter>
<filter id="filter11_di_293_9338" x="113.5" y="11.4102" width="56" height="64" filterUnits="userSpaceOnUse" color-interpolation-filters="sRGB">
<feFlood flood-opacity="0" result="BackgroundImageFix"/>
<feColorMatrix in="SourceAlpha" type="matrix" values="0 0 0 0 0 0 0 0 0 0 0 0 0 0 0 0 0 0 127 0" result="hardAlpha"/>
<feOffset dy="32"/>
<feGaussianBlur stdDeviation="12"/>
<feComposite in2="hardAlpha" operator="out"/>
<feColorMatrix type="matrix" values="0 0 0 0 0 0 0 0 0 0 0 0 0 0 0 0 0 0 0.4 0"/>
<feBlend mode="normal" in2="BackgroundImageFix" result="effect1_dropShadow_293_9338"/>
<feBlend mode="normal" in="SourceGraphic" in2="effect1_dropShadow_293_9338" result="shape"/>
<feColorMatrix in="SourceAlpha" type="matrix" values="0 0 0 0 0 0 0 0 0 0 0 0 0 0 0 0 0 0 127 0" result="hardAlpha"/>
<feOffset/>
<feGaussianBlur stdDeviation="4"/>
<feComposite in2="hardAlpha" operator="arithmetic" k2="-1" k3="1"/>
<feColorMatrix type="matrix" values="0 0 0 0 0.972549 0 0 0 0 0.972549 0 0 0 0 0.972549 0 0 0 0.25 0"/>
<feBlend mode="normal" in2="shape" result="effect2_innerShadow_293_9338"/>
</filter>
<filter id="filter12_di_293_9338" x="113.5" y="204.41" width="56" height="64" filterUnits="userSpaceOnUse" color-interpolation-filters="sRGB">
<feFlood flood-opacity="0" result="BackgroundImageFix"/>
<feColorMatrix in="SourceAlpha" type="matrix" values="0 0 0 0 0 0 0 0 0 0 0 0 0 0 0 0 0 0 127 0" result="hardAlpha"/>
<feOffset dy="32"/>
<feGaussianBlur stdDeviation="12"/>
<feComposite in2="hardAlpha" operator="out"/>
<feColorMatrix type="matrix" values="0 0 0 0 0 0 0 0 0 0 0 0 0 0 0 0 0 0 0.4 0"/>
<feBlend mode="normal" in2="BackgroundImageFix" result="effect1_dropShadow_293_9338"/>
<feBlend mode="normal" in="SourceGraphic" in2="effect1_dropShadow_293_9338" result="shape"/>
<feColorMatrix in="SourceAlpha" type="matrix" values="0 0 0 0 0 0 0 0 0 0 0 0 0 0 0 0 0 0 127 0" result="hardAlpha"/>
<feOffset/>
<feGaussianBlur stdDeviation="4"/>
<feComposite in2="hardAlpha" operator="arithmetic" k2="-1" k3="1"/>
<feColorMatrix type="matrix" values="0 0 0 0 0.972549 0 0 0 0 0.972549 0 0 0 0 0.972549 0 0 0 0.25 0"/>
<feBlend mode="normal" in2="shape" result="effect2_innerShadow_293_9338"/>
</filter>
<radialGradient id="paint0_radial_293_9338" cx="0" cy="0" r="1" gradientUnits="userSpaceOnUse" gradientTransform="translate(141.5 112.41) rotate(90) scale(184)">
<stop offset="0.433142" stop-color="#737373" stop-opacity="0"/>
<stop offset="1" stop-color="#D9D9D9"/>
</radialGradient>
<linearGradient id="paint1_linear_293_9338" x1="141.5" y1="60.4102" x2="179.366" y2="179.196" gradientUnits="userSpaceOnUse">
<stop stop-color="white" stop-opacity="0.4"/>
<stop offset="0.4" stop-color="white" stop-opacity="0.01"/>
<stop offset="0.6" stop-color="white" stop-opacity="0.01"/>
<stop offset="1" stop-color="white" stop-opacity="0.1"/>
</linearGradient>
<linearGradient id="paint2_linear_293_9338" x1="141.5" y1="66.4102" x2="164.979" y2="156.871" gradientUnits="userSpaceOnUse">
<stop stop-color="white" stop-opacity="0.4"/>
<stop offset="0.4" stop-color="white" stop-opacity="0.01"/>
<stop offset="0.6" stop-color="white" stop-opacity="0.01"/>
<stop offset="1" stop-color="white" stop-opacity="0.1"/>
</linearGradient>
<linearGradient id="paint3_linear_293_9338" x1="141.5" y1="148.019" x2="142.369" y2="168.309" gradientUnits="userSpaceOnUse">
<stop stop-color="white" stop-opacity="0.4"/>
<stop offset="0.4" stop-color="white" stop-opacity="0.01"/>
<stop offset="0.6" stop-color="white" stop-opacity="0.01"/>
<stop offset="1" stop-color="white" stop-opacity="0.1"/>
</linearGradient>
<linearGradient id="paint4_linear_293_9338" x1="-62.5" y1="104.41" x2="345.5" y2="104.41" gradientUnits="userSpaceOnUse">
<stop offset="0.0504196" stop-color="#D9D9D9" stop-opacity="0"/>
<stop offset="0.495145" stop-color="#737373"/>
<stop offset="0.947001" stop-color="#737373" stop-opacity="0"/>
</linearGradient>
<linearGradient id="paint5_linear_293_9338" x1="-30.5" y1="72.4102" x2="-2.65874" y2="142.69" gradientUnits="userSpaceOnUse">
<stop stop-color="white" stop-opacity="0.4"/>
<stop offset="0.4" stop-color="white" stop-opacity="0.01"/>
<stop offset="0.6" stop-color="white" stop-opacity="0.01"/>
<stop offset="1" stop-color="white" stop-opacity="0.1"/>
</linearGradient>
<linearGradient id="paint6_linear_293_9338" x1="39.5" y1="72.4102" x2="67.3413" y2="142.69" gradientUnits="userSpaceOnUse">
<stop stop-color="white" stop-opacity="0.4"/>
<stop offset="0.4" stop-color="white" stop-opacity="0.01"/>
<stop offset="0.6" stop-color="white" stop-opacity="0.01"/>
<stop offset="1" stop-color="white" stop-opacity="0.1"/>
</linearGradient>
<linearGradient id="paint7_linear_293_9338" x1="174.833" y1="85.7437" x2="174.833" y2="94.4103" gradientUnits="userSpaceOnUse">
<stop stop-color="#F8F8F8" stop-opacity="0.9"/>
<stop offset="1" stop-color="#F8F8F8" stop-opacity="0.3"/>
</linearGradient>
<linearGradient id="paint8_linear_293_9338" x1="243.5" y1="72.4102" x2="271.341" y2="142.69" gradientUnits="userSpaceOnUse">
<stop stop-color="white" stop-opacity="0.4"/>
<stop offset="0.4" stop-color="white" stop-opacity="0.01"/>
<stop offset="0.6" stop-color="white" stop-opacity="0.01"/>
<stop offset="1" stop-color="white" stop-opacity="0.1"/>
</linearGradient>
<linearGradient id="paint9_linear_293_9338" x1="313.5" y1="72.4102" x2="341.341" y2="142.69" gradientUnits="userSpaceOnUse">
<stop stop-color="white" stop-opacity="0.4"/>
<stop offset="0.4" stop-color="white" stop-opacity="0.01"/>
<stop offset="0.6" stop-color="white" stop-opacity="0.01"/>
<stop offset="1" stop-color="white" stop-opacity="0.1"/>
</linearGradient>
<linearGradient id="paint10_linear_293_9338" x1="-37.5" y1="112.41" x2="326.5" y2="112.41" gradientUnits="userSpaceOnUse">
<stop offset="0.0504196" stop-color="#D9D9D9" stop-opacity="0"/>
<stop offset="0.495145" stop-color="#737373"/>
<stop offset="0.947001" stop-color="#737373" stop-opacity="0"/>
</linearGradient>
<linearGradient id="paint11_linear_293_9338" x1="5.5" y1="316.41" x2="5.5" y2="188.41" gradientUnits="userSpaceOnUse">
<stop offset="0.522974" stop-color="#F8F8F8" stop-opacity="0"/>
<stop offset="1" stop-color="#F8F8F8" stop-opacity="0.1"/>
</linearGradient>
<linearGradient id="paint12_linear_293_9338" x1="141.5" y1="316.41" x2="141.5" y2="188.41" gradientUnits="userSpaceOnUse">
<stop offset="0.522974" stop-color="#F8F8F8" stop-opacity="0"/>
<stop offset="1" stop-color="#F8F8F8" stop-opacity="0.1"/>
</linearGradient>
<linearGradient id="paint13_linear_293_9338" x1="141.5" y1="316.41" x2="141.5" y2="188.41" gradientUnits="userSpaceOnUse">
<stop offset="0.522974" stop-color="#F8F8F8" stop-opacity="0"/>
<stop offset="1" stop-color="#F8F8F8" stop-opacity="0.1"/>
</linearGradient>
<linearGradient id="paint14_linear_293_9338" x1="277.5" y1="316.41" x2="277.5" y2="188.41" gradientUnits="userSpaceOnUse">
<stop offset="0.522974" stop-color="#F8F8F8" stop-opacity="0"/>
<stop offset="1" stop-color="#F8F8F8" stop-opacity="0.1"/>
</linearGradient>
<linearGradient id="paint15_linear_293_9338" x1="4.5" y1="-91.5898" x2="4.5" y2="36.4101" gradientUnits="userSpaceOnUse">
<stop offset="0.522974" stop-color="#F8F8F8" stop-opacity="0"/>
<stop offset="1" stop-color="#F8F8F8" stop-opacity="0.1"/>
</linearGradient>
<linearGradient id="paint16_linear_293_9338" x1="140.5" y1="-91.5898" x2="140.5" y2="36.4101" gradientUnits="userSpaceOnUse">
<stop offset="0.522974" stop-color="#F8F8F8" stop-opacity="0"/>
<stop offset="1" stop-color="#F8F8F8" stop-opacity="0.1"/>
</linearGradient>
<linearGradient id="paint17_linear_293_9338" x1="140.5" y1="-91.5898" x2="140.5" y2="36.4101" gradientUnits="userSpaceOnUse">
<stop offset="0.522974" stop-color="#F8F8F8" stop-opacity="0"/>
<stop offset="1" stop-color="#F8F8F8" stop-opacity="0.1"/>
</linearGradient>
<linearGradient id="paint18_linear_293_9338" x1="276.5" y1="-91.5898" x2="276.5" y2="36.4101" gradientUnits="userSpaceOnUse">
<stop offset="0.522974" stop-color="#F8F8F8" stop-opacity="0"/>
<stop offset="1" stop-color="#F8F8F8" stop-opacity="0.1"/>
</linearGradient>
<linearGradient id="paint19_linear_293_9338" x1="141.5" y1="11.4102" x2="144.98" y2="20.1951" gradientUnits="userSpaceOnUse">
<stop stop-color="white" stop-opacity="0.4"/>
<stop offset="0.4" stop-color="white" stop-opacity="0.01"/>
<stop offset="0.6" stop-color="white" stop-opacity="0.01"/>
<stop offset="1" stop-color="white" stop-opacity="0.1"/>
</linearGradient>
<linearGradient id="paint20_linear_293_9338" x1="141.5" y1="204.41" x2="144.98" y2="213.195" gradientUnits="userSpaceOnUse">
<stop stop-color="white" stop-opacity="0.4"/>
<stop offset="0.4" stop-color="white" stop-opacity="0.01"/>
<stop offset="0.6" stop-color="white" stop-opacity="0.01"/>
<stop offset="1" stop-color="white" stop-opacity="0.1"/>
</linearGradient>
<linearGradient id="paint21_linear_293_9338" x1="141.5" y1="-62.5898" x2="141.5" y2="289.41" gradientUnits="userSpaceOnUse">
<stop stop-color="#D9D9D9" stop-opacity="0"/>
<stop offset="0.155034" stop-color="#B9B9B9" stop-opacity="0.313109"/>
<stop offset="0.495145" stop-color="#737373"/>
<stop offset="0.815034" stop-color="#737373" stop-opacity="0.366374"/>
<stop offset="1" stop-color="#737373" stop-opacity="0"/>
</linearGradient>
<linearGradient id="paint22_linear_293_9338" x1="nan" y1="nan" x2="nan" y2="nan" gradientUnits="userSpaceOnUse">
<stop stop-color="#F8F8F8" stop-opacity="0.8"/>
<stop offset="0.45221" stop-color="#F8F8F8" stop-opacity="0.2"/>
<stop offset="1" stop-color="#F8F8F8" stop-opacity="0.8"/>
</linearGradient>
<linearGradient id="paint23_linear_293_9338" x1="nan" y1="nan" x2="nan" y2="nan" gradientUnits="userSpaceOnUse">
<stop stop-color="#F8F8F8" stop-opacity="0.8"/>
<stop offset="0.45221" stop-color="#F8F8F8" stop-opacity="0.2"/>
<stop offset="1" stop-color="#F8F8F8" stop-opacity="0.8"/>
</linearGradient>
<linearGradient id="paint24_linear_293_9338" x1="nan" y1="nan" x2="nan" y2="nan" gradientUnits="userSpaceOnUse">
<stop stop-color="#F8F8F8" stop-opacity="0.8"/>
<stop offset="0.45221" stop-color="#F8F8F8" stop-opacity="0.2"/>
<stop offset="1" stop-color="#F8F8F8" stop-opacity="0.8"/>
</linearGradient>
<linearGradient id="paint25_linear_293_9338" x1="nan" y1="nan" x2="nan" y2="nan" gradientUnits="userSpaceOnUse">
<stop stop-color="#F8F8F8" stop-opacity="0.8"/>
<stop offset="0.45221" stop-color="#F8F8F8" stop-opacity="0.2"/>
<stop offset="1" stop-color="#F8F8F8" stop-opacity="0.8"/>
</linearGradient>
<linearGradient id="paint26_linear_293_9338" x1="nan" y1="nan" x2="nan" y2="nan" gradientUnits="userSpaceOnUse">
<stop stop-color="#F8F8F8" stop-opacity="0.8"/>
<stop offset="0.45221" stop-color="#F8F8F8" stop-opacity="0.2"/>
<stop offset="1" stop-color="#F8F8F8" stop-opacity="0.8"/>
</linearGradient>
<linearGradient id="paint27_linear_293_9338" x1="nan" y1="nan" x2="nan" y2="nan" gradientUnits="userSpaceOnUse">
<stop stop-color="#F8F8F8" stop-opacity="0.8"/>
<stop offset="0.45221" stop-color="#F8F8F8" stop-opacity="0.2"/>
<stop offset="1" stop-color="#F8F8F8" stop-opacity="0.8"/>
</linearGradient>
<clipPath id="clip0_293_9338">
<rect width="282" height="228" fill="white"/>
</clipPath>
</defs>
</svg>
